<?xml version="1.0" standalone="no"?>
<svg xmlns:xlink="http://www.w3.org/1999/xlink" id="wave" style="transform:rotate(180deg); transition: 0.3s" viewBox="0 0 1440 490" version="1.1" xmlns="http://www.w3.org/2000/svg"><defs><linearGradient id="sw-gradient-0" x1="0" x2="0" y1="1" y2="0"><stop stop-color="rgba(157, 212, 238, 1)" offset="0%"/><stop stop-color="rgba(164, 214, 206, 1)" offset="100%"/></linearGradient></defs><path style="transform:translate(0, 0px); opacity:1" fill="url(#sw-gradient-0)" d="M0,98L34.3,122.5C68.6,147,137,196,206,220.5C274.3,245,343,245,411,261.3C480,278,549,310,617,277.7C685.7,245,754,147,823,138.8C891.4,131,960,212,1029,212.3C1097.1,212,1166,131,1234,147C1302.9,163,1371,278,1440,294C1508.6,310,1577,229,1646,163.3C1714.3,98,1783,49,1851,57.2C1920,65,1989,131,2057,163.3C2125.7,196,2194,196,2263,212.3C2331.4,229,2400,261,2469,261.3C2537.1,261,2606,229,2674,196C2742.9,163,2811,131,2880,106.2C2948.6,82,3017,65,3086,98C3154.3,131,3223,212,3291,277.7C3360,343,3429,392,3497,367.5C3565.7,343,3634,245,3703,171.5C3771.4,98,3840,49,3909,24.5C3977.1,0,4046,0,4114,0C4182.9,0,4251,0,4320,24.5C4388.6,49,4457,98,4526,155.2C4594.3,212,4663,278,4731,318.5C4800,359,4869,376,4903,383.8L4937.1,392L4937.1,490L4902.9,490C4868.6,490,4800,490,4731,490C4662.9,490,4594,490,4526,490C4457.1,490,4389,490,4320,490C4251.4,490,4183,490,4114,490C4045.7,490,3977,490,3909,490C3840,490,3771,490,3703,490C3634.3,490,3566,490,3497,490C3428.6,490,3360,490,3291,490C3222.9,490,3154,490,3086,490C3017.1,490,2949,490,2880,490C2811.4,490,2743,490,2674,490C2605.7,490,2537,490,2469,490C2400,490,2331,490,2263,490C2194.3,490,2126,490,2057,490C1988.6,490,1920,490,1851,490C1782.9,490,1714,490,1646,490C1577.1,490,1509,490,1440,490C1371.4,490,1303,490,1234,490C1165.7,490,1097,490,1029,490C960,490,891,490,823,490C754.3,490,686,490,617,490C548.6,490,480,490,411,490C342.9,490,274,490,206,490C137.1,490,69,490,34,490L0,490Z"/></svg>