<?xml version="1.0" standalone="no"?>
<svg xmlns:xlink="http://www.w3.org/1999/xlink" id="wave" style="transform:rotate(180deg); transition: 0.3s" viewBox="0 0 1440 490" version="1.1" xmlns="http://www.w3.org/2000/svg"><defs><linearGradient id="sw-gradient-0" x1="0" x2="0" y1="1" y2="0"><stop stop-color="rgba(157, 212, 238, 1)" offset="0%"/><stop stop-color="rgba(164, 214, 206, 1)" offset="100%"/></linearGradient></defs><path style="transform:translate(0, 0px); opacity:1" fill="url(#sw-gradient-0)" d="M0,98L40,122.5C80,147,160,196,240,220.5C320,245,400,245,480,261.3C560,278,640,310,720,277.7C800,245,880,147,960,138.8C1040,131,1120,212,1200,212.3C1280,212,1360,131,1440,147C1520,163,1600,278,1680,294C1760,310,1840,229,1920,163.3C2000,98,2080,49,2160,57.2C2240,65,2320,131,2400,163.3C2480,196,2560,196,2640,212.3C2720,229,2800,261,2880,261.3C2960,261,3040,229,3120,196C3200,163,3280,131,3360,106.2C3440,82,3520,65,3600,98C3680,131,3760,212,3840,277.7C3920,343,4000,392,4080,367.5C4160,343,4240,245,4320,171.5C4400,98,4480,49,4560,24.5C4640,0,4720,0,4800,0C4880,0,4960,0,5040,24.5C5120,49,5200,98,5280,155.2C5360,212,5440,278,5520,318.5C5600,359,5680,376,5720,383.8L5760,392L5760,490L5720,490C5680,490,5600,490,5520,490C5440,490,5360,490,5280,490C5200,490,5120,490,5040,490C4960,490,4880,490,4800,490C4720,490,4640,490,4560,490C4480,490,4400,490,4320,490C4240,490,4160,490,4080,490C4000,490,3920,490,3840,490C3760,490,3680,490,3600,490C3520,490,3440,490,3360,490C3280,490,3200,490,3120,490C3040,490,2960,490,2880,490C2800,490,2720,490,2640,490C2560,490,2480,490,2400,490C2320,490,2240,490,2160,490C2080,490,2000,490,1920,490C1840,490,1760,490,1680,490C1600,490,1520,490,1440,490C1360,490,1280,490,1200,490C1120,490,1040,490,960,490C880,490,800,490,720,490C640,490,560,490,480,490C400,490,320,490,240,490C160,490,80,490,40,490L0,490Z"/></svg>