<?xml version="1.0" standalone="no"?>
<svg xmlns:xlink="http://www.w3.org/1999/xlink" id="wave" style="transform:rotate(180deg); transition: 0.3s" viewBox="0 0 1440 410" version="1.1" xmlns="http://www.w3.org/2000/svg"><defs><linearGradient id="sw-gradient-0" x1="0" x2="0" y1="1" y2="0"><stop stop-color="rgba(157, 212, 238, 1)" offset="0%"/><stop stop-color="rgba(164, 214, 206, 1)" offset="100%"/></linearGradient></defs><path style="transform:translate(0, 0px); opacity:1" fill="url(#sw-gradient-0)" d="M0,123L40,129.8C80,137,160,150,240,184.5C320,219,400,273,480,246C560,219,640,109,720,68.3C800,27,880,55,960,109.3C1040,164,1120,246,1200,280.2C1280,314,1360,301,1440,252.8C1520,205,1600,123,1680,136.7C1760,150,1840,260,1920,259.7C2000,260,2080,150,2160,88.8C2240,27,2320,14,2400,54.7C2480,96,2560,191,2640,191.3C2720,191,2800,96,2880,54.7C2960,14,3040,27,3120,27.3C3200,27,3280,14,3360,61.5C3440,109,3520,219,3600,259.7C3680,301,3760,273,3840,239.2C3920,205,4000,164,4080,143.5C4160,123,4240,123,4320,157.2C4400,191,4480,260,4560,252.8C4640,246,4720,164,4800,129.8C4880,96,4960,109,5040,129.8C5120,150,5200,178,5280,191.3C5360,205,5440,205,5520,184.5C5600,164,5680,123,5720,102.5L5760,82L5760,410L5720,410C5680,410,5600,410,5520,410C5440,410,5360,410,5280,410C5200,410,5120,410,5040,410C4960,410,4880,410,4800,410C4720,410,4640,410,4560,410C4480,410,4400,410,4320,410C4240,410,4160,410,4080,410C4000,410,3920,410,3840,410C3760,410,3680,410,3600,410C3520,410,3440,410,3360,410C3280,410,3200,410,3120,410C3040,410,2960,410,2880,410C2800,410,2720,410,2640,410C2560,410,2480,410,2400,410C2320,410,2240,410,2160,410C2080,410,2000,410,1920,410C1840,410,1760,410,1680,410C1600,410,1520,410,1440,410C1360,410,1280,410,1200,410C1120,410,1040,410,960,410C880,410,800,410,720,410C640,410,560,410,480,410C400,410,320,410,240,410C160,410,80,410,40,410L0,410Z"/></svg>