<?xml version="1.0" standalone="no"?>
<svg xmlns:xlink="http://www.w3.org/1999/xlink" id="wave" style="transform:rotate(180deg); transition: 0.3s" viewBox="0 0 1440 490" version="1.1" xmlns="http://www.w3.org/2000/svg"><defs><linearGradient id="sw-gradient-0" x1="0" x2="0" y1="1" y2="0"><stop stop-color="rgba(143, 189, 211, 1)" offset="0%"/><stop stop-color="rgba(228, 209, 185, 1)" offset="100%"/></linearGradient></defs><path style="transform:translate(0, 0px); opacity:1" fill="url(#sw-gradient-0)" d="M0,294L48,277.7C96,261,192,229,288,196C384,163,480,131,576,114.3C672,98,768,98,864,138.8C960,180,1056,261,1152,277.7C1248,294,1344,245,1440,261.3C1536,278,1632,359,1728,343C1824,327,1920,212,2016,196C2112,180,2208,261,2304,269.5C2400,278,2496,212,2592,163.3C2688,114,2784,82,2880,106.2C2976,131,3072,212,3168,253.2C3264,294,3360,294,3456,285.8C3552,278,3648,261,3744,253.2C3840,245,3936,245,4032,261.3C4128,278,4224,310,4320,334.8C4416,359,4512,376,4608,318.5C4704,261,4800,131,4896,130.7C4992,131,5088,261,5184,326.7C5280,392,5376,392,5472,367.5C5568,343,5664,294,5760,236.8C5856,180,5952,114,6048,138.8C6144,163,6240,278,6336,302.2C6432,327,6528,261,6624,228.7C6720,196,6816,196,6864,196L6912,196L6912,490L6864,490C6816,490,6720,490,6624,490C6528,490,6432,490,6336,490C6240,490,6144,490,6048,490C5952,490,5856,490,5760,490C5664,490,5568,490,5472,490C5376,490,5280,490,5184,490C5088,490,4992,490,4896,490C4800,490,4704,490,4608,490C4512,490,4416,490,4320,490C4224,490,4128,490,4032,490C3936,490,3840,490,3744,490C3648,490,3552,490,3456,490C3360,490,3264,490,3168,490C3072,490,2976,490,2880,490C2784,490,2688,490,2592,490C2496,490,2400,490,2304,490C2208,490,2112,490,2016,490C1920,490,1824,490,1728,490C1632,490,1536,490,1440,490C1344,490,1248,490,1152,490C1056,490,960,490,864,490C768,490,672,490,576,490C480,490,384,490,288,490C192,490,96,490,48,490L0,490Z"/><defs><linearGradient id="sw-gradient-1" x1="0" x2="0" y1="1" y2="0"><stop stop-color="rgba(169, 113, 85, 1)" offset="0%"/><stop stop-color="rgba(190, 140, 99, 1)" offset="100%"/></linearGradient></defs><path style="transform:translate(0, 50px); opacity:0.9" fill="url(#sw-gradient-1)" d="M0,294L48,294C96,294,192,294,288,302.2C384,310,480,327,576,334.8C672,343,768,343,864,326.7C960,310,1056,278,1152,228.7C1248,180,1344,114,1440,73.5C1536,33,1632,16,1728,32.7C1824,49,1920,98,2016,171.5C2112,245,2208,343,2304,383.8C2400,425,2496,408,2592,408.3C2688,408,2784,425,2880,375.7C2976,327,3072,212,3168,179.7C3264,147,3360,196,3456,220.5C3552,245,3648,245,3744,228.7C3840,212,3936,180,4032,212.3C4128,245,4224,343,4320,392C4416,441,4512,441,4608,400.2C4704,359,4800,278,4896,228.7C4992,180,5088,163,5184,155.2C5280,147,5376,147,5472,196C5568,245,5664,343,5760,334.8C5856,327,5952,212,6048,196C6144,180,6240,261,6336,269.5C6432,278,6528,212,6624,163.3C6720,114,6816,82,6864,65.3L6912,49L6912,490L6864,490C6816,490,6720,490,6624,490C6528,490,6432,490,6336,490C6240,490,6144,490,6048,490C5952,490,5856,490,5760,490C5664,490,5568,490,5472,490C5376,490,5280,490,5184,490C5088,490,4992,490,4896,490C4800,490,4704,490,4608,490C4512,490,4416,490,4320,490C4224,490,4128,490,4032,490C3936,490,3840,490,3744,490C3648,490,3552,490,3456,490C3360,490,3264,490,3168,490C3072,490,2976,490,2880,490C2784,490,2688,490,2592,490C2496,490,2400,490,2304,490C2208,490,2112,490,2016,490C1920,490,1824,490,1728,490C1632,490,1536,490,1440,490C1344,490,1248,490,1152,490C1056,490,960,490,864,490C768,490,672,490,576,490C480,490,384,490,288,490C192,490,96,490,48,490L0,490Z"/><defs><linearGradient id="sw-gradient-2" x1="0" x2="0" y1="1" y2="0"><stop stop-color="rgba(143, 189, 211, 1)" offset="0%"/><stop stop-color="rgba(143, 189, 211, 1)" offset="100%"/></linearGradient></defs><path style="transform:translate(0, 100px); opacity:0.8" fill="url(#sw-gradient-2)" d="M0,294L48,253.2C96,212,192,131,288,98C384,65,480,82,576,106.2C672,131,768,163,864,204.2C960,245,1056,294,1152,318.5C1248,343,1344,343,1440,310.3C1536,278,1632,212,1728,204.2C1824,196,1920,245,2016,228.7C2112,212,2208,131,2304,122.5C2400,114,2496,180,2592,228.7C2688,278,2784,310,2880,294C2976,278,3072,212,3168,212.3C3264,212,3360,278,3456,277.7C3552,278,3648,212,3744,212.3C3840,212,3936,278,4032,269.5C4128,261,4224,180,4320,130.7C4416,82,4512,65,4608,89.8C4704,114,4800,180,4896,228.7C4992,278,5088,310,5184,277.7C5280,245,5376,147,5472,130.7C5568,114,5664,180,5760,236.8C5856,294,5952,343,6048,367.5C6144,392,6240,392,6336,326.7C6432,261,6528,131,6624,81.7C6720,33,6816,65,6864,81.7L6912,98L6912,490L6864,490C6816,490,6720,490,6624,490C6528,490,6432,490,6336,490C6240,490,6144,490,6048,490C5952,490,5856,490,5760,490C5664,490,5568,490,5472,490C5376,490,5280,490,5184,490C5088,490,4992,490,4896,490C4800,490,4704,490,4608,490C4512,490,4416,490,4320,490C4224,490,4128,490,4032,490C3936,490,3840,490,3744,490C3648,490,3552,490,3456,490C3360,490,3264,490,3168,490C3072,490,2976,490,2880,490C2784,490,2688,490,2592,490C2496,490,2400,490,2304,490C2208,490,2112,490,2016,490C1920,490,1824,490,1728,490C1632,490,1536,490,1440,490C1344,490,1248,490,1152,490C1056,490,960,490,864,490C768,490,672,490,576,490C480,490,384,490,288,490C192,490,96,490,48,490L0,490Z"/></svg>